<svg width="32" height="32" viewBox="0 0 32 32" fill="none" xmlns="http://www.w3.org/2000/svg">
  <defs>
    <linearGradient id="bellGradient" x1="0%" y1="0%" x2="100%" y2="100%">
      <stop offset="0%" style="stop-color:#3B82F6;stop-opacity:1" />
      <stop offset="100%" style="stop-color:#1D4ED8;stop-opacity:1" />
    </linearGradient>
  </defs>
  <!-- Fondo círculo para mejor contraste -->
  <circle fill="#FFFFFF" cx="16" cy="16" r="15"/>
  <!-- Campana principal - forma clásica -->
  <path fill="url(#bellGradient)" d="M16 6c-1 0-2 1-2 2v1c-3 1-5 4-5 7v4l-2 2v1h18v-1l-2-2v-4c0-3-2-6-5-7V8c0-1-1-2-2-2z"/>
  <!-- Parte inferior de la campana (boca) -->
  <path fill="url(#bellGradient)" d="M13 24c0 1.7 1.3 3 3 3s3-1.3 3-3H13z"/>
  <!-- Highlight para dar profundidad -->
  <ellipse fill="#FFFFFF" fill-opacity="0.4" cx="13" cy="12" rx="2" ry="3"/>
</svg>
